<svg width="134" height="40" viewBox="0 0 134 40" fill="none" xmlns="http://www.w3.org/2000/svg">
<path d="M1.65129 24.0399H0V21.1405H8.25646C11.6353 21.1405 13.9979 23.5698 13.9979 27.1745C13.9979 30.7792 11.6353 33.2868 8.25646 33.2868H4.97928V39.6864H1.65129V24.0399ZM7.64675 30.3612C9.52668 30.3612 10.5937 29.1074 10.5937 27.1745C10.5937 25.2676 9.52668 24.0399 7.69756 24.0399H4.97928V30.3612H7.64675Z" fill="#DF1D3D"/>
<path d="M16.615 29.7606C16.615 29.3688 16.4117 29.1859 16.0561 29.1859H15.0399V26.3649H17.9868C19.13 26.3649 19.7143 26.8612 19.7143 27.9844V28.768C19.7143 29.2643 19.6635 29.6039 19.6635 29.6039H19.7143C20.2986 27.697 21.8483 26.182 23.8298 26.182C24.1093 26.182 24.4142 26.2342 24.4142 26.2342V29.4994C24.4142 29.4994 24.0839 29.4471 23.6266 29.4471C22.2548 29.4471 20.6797 30.2569 20.0954 32.2421C19.9176 32.8951 19.8159 33.6265 19.8159 34.4101V39.6866H16.615V29.7606Z" fill="#DF1D3D"/>
<path d="M32.4175 26.0513C36.3806 26.0513 39.5307 28.9507 39.5307 33.0256C39.5307 37.1266 36.3806 39.9999 32.4175 39.9999C28.4798 39.9999 25.3296 37.1266 25.3296 33.0256C25.3296 28.9507 28.4798 26.0513 32.4175 26.0513ZM32.4175 37.1788C34.5261 37.1788 36.279 35.5071 36.279 33.0256C36.279 30.5702 34.5261 28.8724 32.4175 28.8724C30.3343 28.8724 28.5814 30.5702 28.5814 33.0256C28.5814 35.5071 30.3343 37.1788 32.4175 37.1788Z" fill="#DF1D3D"/>
<path d="M46.6184 26.3125C50.0734 26.3125 51.8009 29.1074 51.8009 32.2681C51.8009 32.5554 51.7501 32.9734 51.7501 32.9734H41.5612C41.5612 36.7609 44.0508 38.929 46.9977 38.929C49.4366 38.929 50.9354 37.2833 50.9354 37.2833L51.5197 38.1976C51.5197 38.1976 49.7414 39.9999 46.9977 39.9999C43.4157 39.9999 40.4434 37.3356 40.4434 33.1823C40.4451 28.7679 43.3666 26.3125 46.6184 26.3125ZM50.6831 31.9546C50.5561 28.7679 48.7015 27.3312 46.5929 27.3312C44.2557 27.3312 42.0963 28.8985 41.6391 31.9546H50.6831Z" fill="#666B7B"/>
<path d="M54.3927 28.1932C54.3927 27.8014 54.1894 27.6186 53.8338 27.6186H52.7414V26.626H53.9862C55.0278 26.626 55.4596 27.07 55.4596 28.0626V28.794C55.4596 29.3948 55.4088 29.865 55.4088 29.865H55.4596C55.8915 28.6373 57.619 26.3125 60.7946 26.3125C64.0972 26.3125 64.9863 28.3238 64.9863 31.4061V38.1192C64.9863 38.511 65.1896 38.6939 65.5452 38.6939H66.6376V39.6865H65.3928C64.3512 39.6865 63.9193 39.2424 63.9193 38.1714V31.7979C63.9193 29.5254 63.6399 27.3835 60.7946 27.3835C58.4066 27.3835 56.298 29.1075 55.6629 31.5367C55.5105 32.0852 55.4596 32.686 55.4596 33.3129V39.6865H54.3927V28.1932Z" fill="#666B7B"/>
<path d="M73.4736 26.3125C76.9286 26.3125 78.6561 29.1074 78.6561 32.2681C78.6561 32.5554 78.6053 32.9734 78.6053 32.9734H68.4164C68.4164 36.7609 70.9061 38.929 73.853 38.929C76.2918 38.929 77.7907 37.2833 77.7907 37.2833L78.375 38.1976C78.375 38.1976 76.5967 39.9999 73.853 39.9999C70.271 39.9999 67.2986 37.3356 67.2986 33.1823C67.3003 28.7679 70.2219 26.3125 73.4736 26.3125ZM77.5383 31.9546C77.4113 28.7679 75.5568 27.3312 73.4482 27.3312C71.111 27.3312 68.9516 28.8985 68.4944 31.9546H77.5383Z" fill="#666B7B"/>
<path d="M81.247 28.1932C81.247 27.8014 81.0438 27.6186 80.6881 27.6186H79.5958V26.626H80.8406C81.8822 26.626 82.314 27.07 82.314 28.0626V28.794C82.314 29.3948 82.2632 29.865 82.2632 29.865H82.314C82.9491 27.9059 85.1593 26.3125 87.1409 26.3125C89.6813 26.3125 90.8753 27.5402 91.1548 29.865H91.2056C91.9169 27.9059 93.8476 26.3125 96.0324 26.3125C99.3096 26.3125 100.275 28.2977 100.275 31.4061V38.1192C100.275 38.511 100.478 38.6939 100.834 38.6939H101.926V39.6865H100.681C99.6398 39.6865 99.208 39.2424 99.208 38.1714V31.7979C99.208 29.3425 98.7253 27.3312 96.0324 27.3312C93.9239 27.3312 92.1201 29.2642 91.5612 31.3016C91.3834 31.9024 91.3072 32.5554 91.3072 33.3129V39.6865H90.2402V31.7979C90.2402 29.5515 89.9354 27.3312 87.1409 27.3312C84.8799 27.3312 83.1016 29.3687 82.5173 31.5367C82.3648 32.0852 82.314 32.686 82.314 33.3129V39.6865H81.247V28.1932Z" fill="#666B7B"/>
<path d="M105.953 18.0235C105.953 22.0044 109.097 25.2329 112.965 25.2329C112.965 23.2408 114.536 21.6282 116.471 21.6282H123.482C129.291 21.6282 134 16.7836 134 10.8141C134 4.84458 129.293 0 123.482 0H114.718C109.877 0 105.953 4.03483 105.953 9.01176V18.0235Z" fill="#CED0DD"/>
<path d="M121.487 8.26295L117.834 6.05833C117.665 5.96429 117.468 5.90857 117.258 5.90857C116.645 5.90857 116.147 6.35959 116.147 6.9151V14.9691C116.147 15.5246 116.645 15.9756 117.258 15.9756C117.485 15.9756 117.695 15.9129 117.872 15.8084H117.873L121.489 13.623V8.26295H121.487Z" fill="url(#paint0_linear)"/>
<path d="M124.529 10.1001L122.075 8.61816V13.2677L124.529 11.7858V11.784C124.832 11.6047 125.032 11.2947 125.032 10.9429C125.032 10.5894 124.832 10.2795 124.529 10.1001Z" fill="#505462"/>
<defs>
<linearGradient id="paint0_linear" x1="116.147" y1="10.9412" x2="121.488" y2="10.9412" gradientUnits="userSpaceOnUse">
<stop stop-color="#DF1D3D"/>
<stop offset="1" stop-color="#F01D4A"/>
</linearGradient>
</defs>
</svg>
