<svg width="18" height="18" viewBox="0 0 18 18" fill="none" xmlns="http://www.w3.org/2000/svg">
<path d="M9.00014 17.5714C13.734 17.5714 17.5716 13.7339 17.5716 9.00002C17.5716 4.26615 13.734 0.428589 9.00014 0.428589C4.26627 0.428589 0.428711 4.26615 0.428711 9.00002C0.428711 13.7339 4.26627 17.5714 9.00014 17.5714Z" fill="#49BCFF"/>
<path opacity="0.15" d="M10.1429 16.4285C8.5165 16.4285 6.92368 15.9658 5.55044 15.0943C4.1772 14.2229 3.08024 12.9788 2.38764 11.5072C1.69505 10.0356 1.43542 8.39741 1.63907 6.78381C1.84273 5.17021 2.50126 3.64786 3.53776 2.39453C2.61782 3.15528 1.86693 4.09979 1.33319 5.16756C0.799456 6.23534 0.49464 7.40282 0.438272 8.59523C0.381905 9.78764 0.57523 10.9787 1.00586 12.092C1.43649 13.2054 2.09494 14.2165 2.93901 15.0607C3.78308 15.9048 4.79417 16.5633 5.9075 16.994C7.02083 17.4247 8.21185 17.6181 9.40427 17.5619C10.5967 17.5056 11.7642 17.2008 12.832 16.6672C13.8998 16.1335 14.8444 15.3827 15.6052 14.4628C14.0699 15.736 12.1374 16.4314 10.1429 16.4285Z" fill="#000028"/>
<path fill-rule="evenodd" clip-rule="evenodd" d="M9 0.857143C4.50282 0.857143 0.857143 4.50282 0.857143 9C0.857143 13.4972 4.50282 17.1429 9 17.1429C13.4972 17.1429 17.1429 13.4972 17.1429 9C17.1429 4.50282 13.4972 0.857143 9 0.857143ZM0 9C0 4.02944 4.02944 0 9 0C13.9706 0 18 4.02944 18 9C18 13.9706 13.9706 18 9 18C4.02944 18 0 13.9706 0 9ZM9 4C9.23669 4 9.42857 4.19188 9.42857 4.42857V8.57143H13.5714C13.8081 8.57143 14 8.76331 14 9C14 9.23669 13.8081 9.42857 13.5714 9.42857H9.42857V13.5714C9.42857 13.8081 9.23669 14 9 14C8.76331 14 8.57143 13.8081 8.57143 13.5714V9.42857H4.42857C4.19188 9.42857 4 9.23669 4 9C4 8.76331 4.19188 8.57143 4.42857 8.57143H8.57143V4.42857C8.57143 4.19188 8.76331 4 9 4Z" fill="#2E4369"/>
</svg>
