<svg width="16" height="21" viewBox="0 0 16 21" fill="none" xmlns="http://www.w3.org/2000/svg">
<path fill-rule="evenodd" clip-rule="evenodd" d="M15.8438 8.5031C15.6355 8.71451 15.2978 8.71451 15.0895 8.5031L8.53437 1.84935L8.53437 20.0301C8.53437 20.3291 8.29559 20.5714 8.00104 20.5714C7.70649 20.5714 7.46771 20.3291 7.46771 20.0301L7.46771 1.84724L0.910456 8.50309C0.702176 8.71451 0.364488 8.71451 0.156208 8.50309C-0.052071 8.29168 -0.052071 7.94892 0.156208 7.73751L7.62288 0.158558C7.72715 0.0527175 7.86386 -0.000135296 8.00052 -9.09462e-08C8.0007 -2.52275e-07 8.00087 -3.49068e-07 8.00104 -3.49061e-07C8.15843 -3.42181e-07 8.2999 0.0692008 8.39752 0.179263L15.8438 7.73751C16.0521 7.94892 16.0521 8.29168 15.8438 8.5031Z" fill="white"/>
</svg>
