<svg width="18" height="15" viewBox="0 0 18 15" fill="none" xmlns="http://www.w3.org/2000/svg">
<path d="M4.97766 6.68C5.99099 6.76 6.80432 7.13333 7.41766 7.8C8.05766 8.46667 8.37766 9.30667 8.37766 10.32C8.37766 11.4133 8.01766 12.3333 7.29766 13.08C6.60432 13.8267 5.72432 14.2 4.65766 14.2C3.48432 14.2 2.52432 13.7733 1.77766 12.92C1.03099 12.0667 0.657656 10.8533 0.657656 9.28C0.657656 7.68 0.937656 6.22667 1.49766 4.92C2.05766 3.58667 2.89766 2.34667 4.01766 1.2C4.39099 0.799998 4.84432 0.599998 5.37766 0.599998C5.91099 0.599998 6.37766 0.786665 6.77766 1.16C7.17766 1.50667 7.37766 1.90667 7.37766 2.36C7.37766 2.78667 7.21766 3.16 6.89766 3.48C5.93766 4.49333 5.29766 5.56 4.97766 6.68ZM13.8977 6.68C14.911 6.76 15.7243 7.13333 16.3377 7.8C16.9777 8.46667 17.2977 9.30667 17.2977 10.32C17.2977 11.4133 16.9377 12.3333 16.2177 13.08C15.5243 13.8267 14.6443 14.2 13.5777 14.2C12.4043 14.2 11.4443 13.7733 10.6977 12.92C9.95099 12.0667 9.57766 10.8533 9.57766 9.28C9.57766 7.68 9.85766 6.22667 10.4177 4.92C10.9777 3.58667 11.8177 2.34667 12.9377 1.2C13.311 0.799998 13.7643 0.599998 14.2977 0.599998C14.831 0.599998 15.2977 0.786665 15.6977 1.16C16.0977 1.50667 16.2977 1.90667 16.2977 2.36C16.2977 2.78667 16.1377 3.16 15.8177 3.48C14.8577 4.49333 14.2177 5.56 13.8977 6.68Z" fill="#794A7D"/>
</svg>
