<svg width="30" height="30" viewBox="0 0 30 30" fill="none" xmlns="http://www.w3.org/2000/svg">
<g clip-path="url(#clip0)">
<path d="M22.3565 11.5348L23.6757 8.79001L18.3854 7.62354L12.4843 8.65279L15.0231 12.2896L21.0616 12.9072" fill="#EDEAE4"/>
<path d="M16.1208 28.1405V24.5902C16.1208 23.1088 14.9085 21.8684 13.4274 21.8967C11.9921 21.9242 10.8371 23.0962 10.8371 24.538C10.8371 25.6127 9.22968 26.5371 10.1509 26.9496C10.62 27.1596 11.2488 27.6266 11.2488 28.1405H10.0137H13.1702C13.1702 28.8985 13.7846 29.5129 14.5425 29.5129H16.1208H19.14C19.14 28.755 18.5256 28.1405 17.7676 28.1405H16.1207V28.1405H16.1208Z" fill="#6ABA49"/>
<path d="M16.4719 3.02592L14.4739 0.487061L13.6081 3.07707L10.7685 1.31048L11.159 4.43831H8.43544L9.96074 7.07502L6.85716 8.03514L9.06836 10.2697L5.96513 12.0837L8.34503 13.6579L5.67779 15.5147L7.70536 17.3674L4.48981 18.774L6.61353 20.8978" fill="#E53578"/>
<path d="M23.6757 8.79009H15.8668C15.3336 8.79009 14.8924 9.21553 14.8856 9.74873C14.8795 10.2448 15.0784 10.6943 15.4023 11.0182C15.7214 11.3373 16.1619 11.5349 16.6491 11.5349H22.3562C22.8798 11.5349 23.3168 11.95 23.3258 12.4729C23.343 13.5056 22.5106 14.3483 21.482 14.3483H17.6304L18.3584 19.6677C18.6308 21.659 17.7998 23.5179 16.3643 24.6727C15.4324 25.4234 14.2461 25.8763 12.9416 25.8763H12.3466L8.62608 26.9495L1.23035 26.0821C3.05559 25.2168 4.59338 23.9131 5.73519 22.3245C6.87771 20.7353 7.6229 18.862 7.86378 16.8562C7.95981 16.0576 8.07307 15.2615 8.20409 14.4683C8.68924 11.5321 9.41381 8.63505 10.3731 5.80726C10.9378 4.14461 12.4982 3.02612 14.2542 3.02612H16.472C17.1486 3.02612 17.7702 3.40218 18.0845 4.00253C18.394 4.59403 19.0232 4.9474 19.6902 4.9474H20.5487C22.2737 4.9474 23.7751 5.90535 24.5499 7.31816C24.9136 7.98038 24.4312 8.79009 23.6757 8.79009Z" fill="#75CC54"/>
<path d="M16.3644 24.6727C15.4325 25.4234 14.2461 25.8762 12.9416 25.8762H12.3466L8.62614 26.9494L1.23035 26.0821C3.05559 25.2168 4.59338 23.9131 5.73519 22.3245C6.87771 20.7353 7.6229 18.862 7.86378 16.8562C7.95981 16.0576 8.07307 15.2615 8.20409 14.4683C8.68924 11.5321 9.41381 8.63505 10.3731 5.80726C10.9378 4.14461 12.4982 3.02612 14.2542 3.02612H15.2972C15.2972 3.02612 12.5524 5.29053 11.729 11.1918C10.9057 17.0931 12.1408 23.4416 16.1207 24.5904C16.2072 24.615 16.2888 24.6431 16.3644 24.6727Z" fill="#6ABA49"/>
<path d="M12.3468 28.1405V24.5902C12.3468 23.1088 11.1345 21.8684 9.65341 21.8967C8.21817 21.9242 7.06311 23.0962 7.06311 24.538C7.06311 25.6127 7.70494 26.5371 8.62609 26.9496C9.09519 27.1596 9.39613 27.6266 9.39613 28.1405C9.39613 28.8985 10.0105 29.5129 10.7685 29.5129H12.3467H15.3659C15.3659 28.755 14.7515 28.1405 13.9936 28.1405H12.3467V28.1405H12.3468Z" fill="#75CC54"/>
<path d="M23.6757 8.78988H22.3651C22.9195 6.68942 20.5487 4.94727 20.5487 4.94727C22.2738 4.94727 23.7752 5.90521 24.5499 7.31801C24.9137 7.98017 24.4313 8.78988 23.6757 8.78988Z" fill="#AFF492"/>
<path d="M23.3257 12.4726C23.3429 13.5053 22.5105 14.348 21.4819 14.348H20.7867C22.0905 13.0443 21.2671 11.5347 21.2671 11.5347H22.3561C22.8797 11.5346 23.3167 11.9497 23.3257 12.4726Z" fill="#AFF492"/>
<path d="M28.3418 11.3136C28.9123 10.7431 28.9123 9.818 28.3418 9.24747C27.7712 8.67695 26.8462 8.67695 26.2756 9.24747L25.2426 10.2805L26.2756 11.3136C26.8463 11.8841 27.7712 11.8841 28.3418 11.3136Z" fill="#F9D780"/>
<path d="M15.5784 6.45682V5.49618C15.5784 5.22724 15.3604 5.00916 15.0914 5.00916C14.8224 5.00916 14.6044 5.22718 14.6044 5.49618V6.45682C14.6044 6.72577 14.8224 6.94385 15.0914 6.94385C15.3604 6.94385 15.5784 6.72583 15.5784 6.45682Z" fill="black"/>
<path d="M17.294 6.45682V5.49618C17.294 5.22724 17.076 5.00916 16.807 5.00916C16.538 5.00916 16.3199 5.22718 16.3199 5.49618V6.45682C16.3199 6.72577 16.538 6.94385 16.807 6.94385C17.076 6.94385 17.294 6.72583 17.294 6.45682Z" fill="black"/>
<path d="M17.7677 27.6535H16.6078V25.1021C16.8209 24.9347 17.0244 24.752 17.2165 24.5538C18.3495 23.3843 18.9452 21.8488 18.894 20.23C18.8855 19.9612 18.6592 19.751 18.3918 19.7586C18.123 19.7671 17.9119 19.992 17.9204 20.2608C17.9633 21.6137 17.4649 22.8976 16.5169 23.876C15.5716 24.8517 14.3019 25.3891 12.9417 25.3891H12.8337V24.5902C12.8337 23.7377 12.4828 22.9046 11.8711 22.3043C11.2668 21.7116 10.475 21.3935 9.64409 21.4097C7.95243 21.4421 6.57607 22.8455 6.57607 24.5381C6.57607 25.1714 6.76867 25.7753 7.10828 26.2812L2.78947 25.7745C3.57972 25.2694 4.30868 24.6748 4.9675 23.9972C5.15506 23.8043 5.15061 23.496 4.95784 23.3085C4.76506 23.121 4.45674 23.1254 4.26919 23.3182C3.33116 24.2831 2.23857 25.0649 1.02176 25.642C0.825586 25.735 0.714669 25.9468 0.749883 26.161C0.785098 26.3753 0.958008 26.5404 1.17363 26.5657L8.48569 27.4236C8.74479 27.5658 8.90909 27.8404 8.90909 28.1406C8.90909 29.1659 9.74317 30.0001 10.7684 30.0001H19.14C19.4089 30.0001 19.627 29.782 19.627 29.513C19.627 29.0166 19.4336 28.5497 19.0823 28.1984C18.7309 27.847 18.2641 27.6535 17.7677 27.6535ZM10.7684 29.0259C10.2802 29.0259 9.88309 28.6288 9.88309 28.1405C9.88309 27.4349 9.46778 26.7929 8.82507 26.5051C8.05052 26.1582 7.55007 25.3861 7.55007 24.538C7.55007 23.3723 8.49782 22.4058 9.66272 22.3836C9.6762 22.3833 9.68961 22.3832 9.70303 22.3832C10.2564 22.3832 10.7828 22.6011 11.189 22.9996C11.6152 23.4178 11.8597 23.9975 11.8597 24.5901V28.1404C11.8597 28.4094 12.0778 28.6274 12.3468 28.6274H13.9936C14.302 28.6274 14.5741 28.7859 14.7327 29.0258H10.7685V29.0259H10.7684ZM15.7879 29.0259C15.5732 28.2362 14.8504 27.6535 13.9937 27.6535H12.8338V26.3631H12.9417C13.8951 26.3631 14.8112 26.1419 15.6338 25.7242V28.1405C15.6338 28.4095 15.8518 28.6276 16.1208 28.6276H17.7677C18.004 28.6276 18.2263 28.7197 18.3936 28.887C18.4366 28.93 18.4745 28.9764 18.5072 29.0259H15.7879V29.0259Z" fill="black"/>
<path d="M15.1915 18.2011C15.2681 18.2452 15.3517 18.2661 15.434 18.2661C15.6026 18.2661 15.7664 18.1785 15.8565 18.022C16.1678 17.4813 16.5017 16.3734 15.7789 15.6506C14.8981 14.7698 13.0653 15.8386 12.7068 16.0619C12.4787 16.204 12.4089 16.504 12.5508 16.7323C12.6926 16.9606 12.9929 17.0306 13.2213 16.889C13.9116 16.4608 14.8783 16.1275 15.0902 16.3393C15.4623 16.7115 15.0162 17.5296 15.0125 17.5361C14.8782 17.7691 14.9584 18.0669 15.1915 18.2011Z" fill="black"/>
<path d="M24.9527 8.54838C25.2217 8.09364 25.2307 7.54602 24.9769 7.08384C24.0895 5.46554 22.3927 4.46019 20.5487 4.46019H19.6903C19.1867 4.46019 18.7367 4.19822 18.5161 3.77647C18.1553 3.08711 17.4813 2.63483 16.7198 2.55333L14.8566 0.185854C14.7458 0.0451128 14.5671 -0.0234416 14.3904 0.0072028C14.2141 0.0378472 14.0687 0.162769 14.0119 0.332573L13.3417 2.3377L11.0257 0.896887C10.8662 0.797747 10.664 0.798977 10.5059 0.900227C10.3477 1.00142 10.2619 1.18452 10.2851 1.37079L10.6074 3.95131H8.43541C8.26133 3.95131 8.10049 4.04424 8.01354 4.195C7.92658 4.34576 7.92664 4.5315 8.01389 4.6822L9.23333 6.79022L6.71317 7.56987C6.55057 7.6202 6.426 7.75174 6.38464 7.91686C6.34327 8.08198 6.3912 8.25664 6.51085 8.3777L8.28049 10.166L5.71919 11.6632C5.57394 11.7482 5.48282 11.902 5.47814 12.0701C5.47345 12.2383 5.55595 12.397 5.69628 12.4898L7.4777 13.6682L5.3995 15.1148C5.27804 15.1993 5.20157 15.3346 5.19179 15.4823C5.182 15.6301 5.23989 15.7741 5.34917 15.874L6.82362 17.2214L4.29449 18.3278C4.14701 18.3924 4.04095 18.5256 4.01113 18.6837C3.98131 18.8419 4.03152 19.0046 4.14537 19.1184L6.01093 20.9839C5.80679 21.3474 5.5836 21.7006 5.33956 22.04C5.18253 22.2584 5.23234 22.5627 5.45071 22.7198C5.53673 22.7816 5.6361 22.8114 5.73454 22.8114C5.88595 22.8114 6.03524 22.741 6.1304 22.6086C7.33473 20.9332 8.10137 18.964 8.3474 16.914C8.44197 16.1263 8.55535 15.3301 8.68449 14.5475C9.16472 11.6407 9.88806 8.75264 10.8342 5.9637C11.332 4.49787 12.7064 3.51291 14.2541 3.51291H16.4719C16.9694 3.51291 17.422 3.78701 17.6529 4.2281C18.0422 4.97207 18.8227 5.43419 19.6901 5.43419H20.5486C22.0368 5.43419 23.4063 6.24577 24.1228 7.55241C24.2476 7.77969 24.1584 7.97774 24.1143 8.05233C24.0697 8.12768 23.9378 8.30276 23.6755 8.30276H15.8668C15.0674 8.30276 14.4088 8.94846 14.3988 9.74216C14.391 10.3541 14.6252 10.9295 15.0579 11.3622C15.4831 11.7874 16.0482 12.0216 16.6491 12.0216H22.3562C22.618 12.0216 22.8345 12.2276 22.8388 12.4806C22.8449 12.8477 22.7067 13.1938 22.4495 13.4553C22.1922 13.7169 21.8487 13.8609 21.482 13.8609C21.482 13.8609 14.7721 14.2381 14.0638 13.2765C13.9518 13.1243 13.863 13.0132 13.863 12.8384C13.863 12.5694 13.645 12.3513 13.376 12.3513C13.107 12.3513 12.8889 12.5694 12.8889 12.8384C12.8889 13.2829 13.0668 13.6819 13.4033 13.9924C14.2113 14.7377 15.8383 14.8631 16.8417 14.8631C16.9765 14.8631 17.0997 14.8608 17.2085 14.8576L17.7377 18.7234C17.7742 18.9899 18.0199 19.1765 18.2862 19.1399C18.5527 19.1034 18.7391 18.8578 18.7027 18.5913L18.4473 16.7254C19.0942 16.3823 19.8468 16.1553 20.0307 16.3392C20.4028 16.7114 19.9567 17.5294 19.9531 17.536C19.8188 17.7691 19.899 18.0668 20.1321 18.201C20.2087 18.2451 20.2922 18.266 20.3746 18.266C20.5431 18.266 20.707 18.1785 20.7971 18.0219C21.1084 17.4813 21.4423 16.3734 20.7194 15.6505C20.1044 15.0354 19.0251 15.3712 18.3077 15.7058L18.1885 14.8351H21.4818C22.1118 14.8351 22.702 14.5877 23.1438 14.1384C23.5855 13.6893 23.823 13.0949 23.8126 12.4644C23.8034 11.9296 23.4942 11.4632 23.0469 11.2221L23.9989 9.24142C24.3955 9.15453 24.7392 8.90937 24.9527 8.54838ZM14.6495 1.4977L15.4689 2.53885H14.3015L14.6495 1.4977ZM10.2311 4.92531C10.1058 5.15476 9.99821 5.39675 9.91202 5.65058C9.88572 5.7281 9.86023 5.80603 9.83421 5.88378L9.27974 4.92537H10.2311V4.92531ZM7.76791 8.26315L9.22847 7.81127C9.08181 8.31049 8.94236 8.81229 8.8097 9.3159L7.76791 8.26315ZM6.88643 12.1092L8.33428 11.2628C8.21562 11.7894 8.10459 12.3176 8.00152 12.8468L6.88643 12.1092ZM6.45618 15.5662L7.6707 14.7207C7.57959 15.2949 7.49697 15.8738 7.42403 16.4506L6.45618 15.5662ZM5.33874 18.9342L7.13293 18.1493C6.97075 18.8075 6.74891 19.4497 6.47223 20.0677L5.33874 18.9342ZM11.5252 3.44008L11.3783 2.26335L12.4302 2.91778C12.1088 3.05717 11.8053 3.23266 11.5252 3.44008ZM20.0553 9.57078L21.3058 11.0476H18.9476L20.0553 9.57078ZM17.9692 10.729L16.8548 9.27693H19.0583L17.9692 10.729ZM21.0828 9.27693H22.9013L22.2427 10.6468L21.0828 9.27693ZM15.7466 10.6736C15.5011 10.4281 15.3683 10.1017 15.3726 9.75453C15.375 9.56293 15.4933 9.39769 15.6612 9.3217L16.9859 11.0477H16.649C16.3084 11.0477 15.9878 10.9148 15.7466 10.6736Z" fill="black"/>
<path d="M28.6862 8.9031C28.3183 8.53519 27.8291 8.33252 27.3088 8.33252C26.7884 8.33252 26.2993 8.53519 25.9313 8.9031L24.8983 9.93617C24.7081 10.1264 24.7081 10.4347 24.8983 10.6249L25.9313 11.6579C26.2992 12.0258 26.7884 12.2285 27.3088 12.2285C27.8291 12.2285 28.3182 12.0258 28.6862 11.658C29.0541 11.2901 29.2568 10.8009 29.2568 10.2805C29.2568 9.76015 29.0541 9.27107 28.6862 8.9031ZM27.9974 10.9692C27.8134 11.1532 27.5689 11.2545 27.3087 11.2545C27.0485 11.2545 26.804 11.1532 26.62 10.9692L25.9313 10.2805L26.62 9.59181C26.804 9.40783 27.0486 9.30658 27.3087 9.30658C27.5689 9.30658 27.8134 9.40789 27.9974 9.59181C28.1814 9.7758 28.2827 10.0203 28.2827 10.2805C28.2827 10.5407 28.1814 10.7853 27.9974 10.9692Z" fill="black"/>
</g>
<defs>
<clipPath id="clip0">
<rect width="30" height="30" fill="white"/>
</clipPath>
</defs>
</svg>
