<svg width="20" height="18" viewBox="0 0 20 18" fill="none" xmlns="http://www.w3.org/2000/svg">
<path d="M18.6114 17.4375H1.66699V5.625H18.6114V17.4375Z" fill="#EBF5FF"/>
<rect x="3.88916" y="7.875" width="2.22222" height="2.25" fill="#C8E3FF"/>
<rect x="8.88916" y="7.875" width="2.22222" height="2.25" fill="#C8E3FF"/>
<rect x="13.8892" y="7.875" width="2.22222" height="2.25" fill="#C8E3FF"/>
<rect x="3.88916" y="12.9375" width="2.22222" height="2.25" fill="#C8E3FF"/>
<rect x="8.88916" y="12.9375" width="2.22222" height="2.25" fill="#C8E3FF"/>
<rect x="13.8892" y="12.9375" width="2.22222" height="2.25" fill="#C8E3FF"/>
<path d="M1.66699 5.625V1.96875H18.6114V5.625H1.66699Z" fill="#C4E1FF"/>
<path d="M3.05588 1.96875H1.66699V17.7188H3.05588V1.96875Z" fill="#000064" fill-opacity="0.1"/>
<path fill-rule="evenodd" clip-rule="evenodd" d="M5.97504 0C6.20415 0 6.38988 0.191878 6.38988 0.428571V1.53205H13.1869V0.428571C13.1869 0.191878 13.3726 0 13.6017 0C13.8308 0 14.0165 0.191878 14.0165 0.428571V1.53205H18.4743C18.7034 1.53205 18.8891 1.72393 18.8891 1.96062V17.5714C18.8891 17.8081 18.7034 18 18.4743 18H1.52617C1.29706 18 1.11133 17.8081 1.11133 17.5714V1.96062C1.11133 1.72393 1.29706 1.53205 1.52617 1.53205H5.5602V0.428571C5.5602 0.191878 5.74593 0 5.97504 0ZM5.5602 2.38919H1.941V5.20898H18.0594V2.38919H14.0165V3.31528C14.0165 3.55197 13.8308 3.74385 13.6017 3.74385C13.3726 3.74385 13.1869 3.55197 13.1869 3.31528V2.38919H6.38988V3.31528C6.38988 3.55197 6.20415 3.74385 5.97504 3.74385C5.74593 3.74385 5.5602 3.55197 5.5602 3.31528V2.38919ZM18.0594 6.06612H1.941V17.1429H18.0594V6.06612Z" fill="#2E4369"/>
<path fill-rule="evenodd" clip-rule="evenodd" d="M3.33444 7.69059C3.33444 7.4539 3.52039 7.26202 3.74977 7.26202H6.30568C6.53507 7.26202 6.72102 7.4539 6.72102 7.69059V10.328C6.72102 10.5646 6.53507 10.7565 6.30568 10.7565H3.74977C3.52039 10.7565 3.33444 10.5646 3.33444 10.328V7.69059ZM4.16511 8.11916V9.89938H5.89035V8.11916H4.16511ZM8.44626 7.69059C8.44626 7.4539 8.63221 7.26202 8.8616 7.26202H11.4175C11.6469 7.26202 11.8328 7.4539 11.8328 7.69059V10.328C11.8328 10.5646 11.6469 10.7565 11.4175 10.7565H8.8616C8.63221 10.7565 8.44626 10.5646 8.44626 10.328V7.69059ZM9.27693 8.11916V9.89938H11.0022V8.11916H9.27693ZM13.5581 7.69059C13.5581 7.4539 13.744 7.26202 13.9734 7.26202H16.5293C16.7587 7.26202 16.9447 7.4539 16.9447 7.69059V10.328C16.9447 10.5646 16.7587 10.7565 16.5293 10.7565H13.9734C13.744 10.7565 13.5581 10.5646 13.5581 10.328V7.69059ZM14.3888 8.11916V9.89938H16.114V8.11916H14.3888ZM3.33444 12.9653C3.33444 12.7286 3.52039 12.5367 3.74977 12.5367H6.30568C6.53507 12.5367 6.72102 12.7286 6.72102 12.9653V15.6027C6.72102 15.8394 6.53507 16.0312 6.30568 16.0312H3.74977C3.52039 16.0312 3.33444 15.8394 3.33444 15.6027V12.9653ZM4.16511 13.3939V15.1741H5.89035V13.3939H4.16511ZM8.44626 12.9653C8.44626 12.7286 8.63221 12.5367 8.8616 12.5367H11.4175C11.6469 12.5367 11.8328 12.7286 11.8328 12.9653V15.6027C11.8328 15.8394 11.6469 16.0312 11.4175 16.0312H8.8616C8.63221 16.0312 8.44626 15.8394 8.44626 15.6027V12.9653ZM9.27693 13.3939V15.1741H11.0022V13.3939H9.27693ZM13.5581 12.9653C13.5581 12.7286 13.744 12.5367 13.9734 12.5367H16.5293C16.7587 12.5367 16.9447 12.7286 16.9447 12.9653V15.6027C16.9447 15.8394 16.7587 16.0312 16.5293 16.0312H13.9734C13.744 16.0312 13.5581 15.8394 13.5581 15.6027V12.9653ZM14.3888 13.3939V15.1741H16.114V13.3939H14.3888Z" fill="#2E4369"/>
</svg>
