<svg width="25" height="30" viewBox="0 0 25 30" fill="none" xmlns="http://www.w3.org/2000/svg">
<path d="M0.714294 0.714233H23.5714V29.2857H0.714294V0.714233Z" fill="#EBF5FF"/>
<path opacity="0.1" d="M2.61906 27.8571V0.714233H0.714294V29.2857H23.5714V27.8571H2.61906Z" fill="#000064"/>
<path fill-rule="evenodd" clip-rule="evenodd" d="M0 0.714286C0 0.319797 0.319797 0 0.714286 0H23.5714C23.9659 0 24.2857 0.319797 24.2857 0.714286V29.2857C24.2857 29.6802 23.9659 30 23.5714 30H0.714286C0.319797 30 0 29.6802 0 29.2857V0.714286ZM17.1429 1.42857H12.8571V3.80952H13.0952C13.4897 3.80952 13.8095 4.12932 13.8095 4.52381C13.8095 4.9183 13.4897 5.2381 13.0952 5.2381H11.1905C10.796 5.2381 10.4762 4.9183 10.4762 4.52381C10.4762 4.12932 10.796 3.80952 11.1905 3.80952H11.4286V1.42857H7.14286V3.80952H7.38095C7.77544 3.80952 8.09524 4.12932 8.09524 4.52381C8.09524 4.9183 7.77544 5.2381 7.38095 5.2381H5.47619C5.0817 5.2381 4.7619 4.9183 4.7619 4.52381C4.7619 4.12932 5.0817 3.80952 5.47619 3.80952H5.71429V1.42857H1.42857V28.5714H22.8571V1.42857H18.5714V3.80952H18.8095C19.204 3.80952 19.5238 4.12932 19.5238 4.52381C19.5238 4.9183 19.204 5.2381 18.8095 5.2381H16.9048C16.5103 5.2381 16.1905 4.9183 16.1905 4.52381C16.1905 4.12932 16.5103 3.80952 16.9048 3.80952H17.1429V1.42857ZM4.7619 9.28571C4.7619 8.89123 5.0817 8.57143 5.47619 8.57143H18.8095C19.204 8.57143 19.5238 8.89123 19.5238 9.28571C19.5238 9.6802 19.204 10 18.8095 10H5.47619C5.0817 10 4.7619 9.6802 4.7619 9.28571ZM4.7619 14.0476C4.7619 13.6531 5.0817 13.3333 5.47619 13.3333H18.8095C19.204 13.3333 19.5238 13.6531 19.5238 14.0476C19.5238 14.4421 19.204 14.7619 18.8095 14.7619H5.47619C5.0817 14.7619 4.7619 14.4421 4.7619 14.0476ZM4.7619 18.8095C4.7619 18.415 5.0817 18.0952 5.47619 18.0952H18.8095C19.204 18.0952 19.5238 18.415 19.5238 18.8095C19.5238 19.204 19.204 19.5238 18.8095 19.5238H5.47619C5.0817 19.5238 4.7619 19.204 4.7619 18.8095ZM4.7619 23.5714C4.7619 23.1769 5.0817 22.8571 5.47619 22.8571H15C15.3945 22.8571 15.7143 23.1769 15.7143 23.5714C15.7143 23.9659 15.3945 24.2857 15 24.2857H5.47619C5.0817 24.2857 4.7619 23.9659 4.7619 23.5714Z" fill="#2E4369"/>
</svg>
