<svg width="30" height="30" viewBox="0 0 30 30" fill="none" xmlns="http://www.w3.org/2000/svg">
<path d="M15.9469 24.5191L19.6875 20.6927V8.05556H11.8125V0H0V27.1875H14.9133L15.9469 24.5191Z" fill="#EBF5FF"/>
<path d="M19.6875 8.4375L12.1875 0V8.4375H19.6875Z" fill="white"/>
<path opacity="0.15" d="M10.3125 0V10.3125H19.6875V7.85714H12.1875V0H10.3125Z" fill="#000064"/>
<path d="M14.0625 30L19.6875 27.8595L16.2336 24.375L14.0625 30Z" fill="#EFCAA8"/>
<path d="M26.4085 14.0625L15.9375 24.5713L19.2188 27.1875L29.5312 17.3438L26.4085 14.0625Z" fill="#F27E7C"/>
<path opacity="0.15" d="M16.1906 24.5585L19.6875 20.7887V17.8125L12.9697 25.0546L12.1875 27.1875H15.2243L16.1906 24.5585Z" fill="#000064"/>
<path fill-rule="evenodd" clip-rule="evenodd" d="M0 0.714285C0 0.319796 0.318785 0 0.712025 0H12.1044C12.2933 0 12.4744 0.0752548 12.6079 0.209209L20.2028 7.82825C20.3364 7.9622 20.4114 8.14389 20.4114 8.33333V18.5613L25.4142 13.5425C25.6909 13.265 26.139 13.2634 26.4176 13.539L29.7879 16.8723C29.9232 17.0061 29.9996 17.1887 30 17.3793C30.0004 17.5699 29.9249 17.7528 29.7902 17.8872L19.9168 27.7444C19.8455 27.8156 19.76 27.8708 19.6658 27.9064L14.2545 29.954C13.9915 30.0535 13.6947 29.9885 13.497 29.7881C13.2993 29.5876 13.2377 29.2893 13.3397 29.0265L14.0708 27.1428H0.712025C0.318785 27.1428 0 26.823 0 26.4286V0.714285ZM14.6253 25.7143L15.4283 23.6456C15.4641 23.5534 15.5186 23.4696 15.5883 23.3997L18.9873 19.9898V9.04761H12.1044C11.7112 9.04761 11.3924 8.72782 11.3924 8.33333V1.42857H1.42405V25.7143H14.6253ZM12.8165 2.43872L17.9804 7.61904H12.8165V2.43872ZM4.74684 12.619C4.74684 12.2245 5.06562 11.9048 5.45886 11.9048H15.1899C15.5831 11.9048 15.9019 12.2245 15.9019 12.619C15.9019 13.0135 15.5831 13.3333 15.1899 13.3333H5.45886C5.06562 13.3333 4.74684 13.0135 4.74684 12.619ZM25.9213 15.0542L17.0987 23.9047L19.4158 26.2291L28.2762 17.3833L25.9213 15.0542ZM18.1308 26.9604L16.3595 25.1835L15.2461 28.052L18.1308 26.9604ZM4.74684 16.1905C4.74684 15.796 5.06562 15.4762 5.45886 15.4762H15.1899C15.5831 15.4762 15.9019 15.796 15.9019 16.1905C15.9019 16.585 15.5831 16.9047 15.1899 16.9047H5.45886C5.06562 16.9047 4.74684 16.585 4.74684 16.1905ZM4.74684 20C4.74684 19.6055 5.06562 19.2857 5.45886 19.2857H15.1899C15.5831 19.2857 15.9019 19.6055 15.9019 20C15.9019 20.3945 15.5831 20.7143 15.1899 20.7143H5.45886C5.06562 20.7143 4.74684 20.3945 4.74684 20Z" fill="#2E4369"/>
</svg>
