<svg width="23" height="23" viewBox="0 0 23 23" fill="none" xmlns="http://www.w3.org/2000/svg">
<path fill-rule="evenodd" clip-rule="evenodd" d="M2.59954 4.96138e-06L2.60118 0L20.4004 2.48069e-06C21.0892 0.00207729 21.7492 0.276622 22.2363 0.763682C22.7233 1.25074 22.9979 1.91074 22.9999 2.59955L22.9999 2.60119L22.9999 20.3988L22.9999 20.4005C22.9979 21.0893 22.7233 21.7493 22.2363 22.2363C21.7492 22.7234 21.0892 22.9979 20.4004 23L20.3988 23H15.2647C14.9622 23 14.717 22.7548 14.717 22.4524V13.5536C14.717 13.2511 14.9622 13.006 15.2647 13.006H17.6411L18.0383 10.6786H15.2647C14.9622 10.6786 14.717 10.4334 14.717 10.131V9.10472L14.7171 9.09494C14.721 8.87574 14.7693 8.65961 14.8589 8.45953C14.9485 8.25944 15.0776 8.07955 15.2385 7.93067C15.3994 7.78178 15.5888 7.66699 15.7952 7.59318C15.996 7.52139 16.2088 7.48982 16.4217 7.50019H18.14V5.20275H16.0019C14.4725 5.26993 13.7201 5.69754 13.3185 6.2084C12.8975 6.74385 12.7598 7.49215 12.7321 8.42785V10.131C12.7321 10.4334 12.4869 10.6786 12.1845 10.6786H10.3361V13.006H12.1845C12.4869 13.006 12.7321 13.2511 12.7321 13.5536V22.4524C12.7321 22.7548 12.4869 23 12.1845 23H2.60118L2.59954 23C1.91073 22.9979 1.25074 22.7234 0.763678 22.2363C0.276619 21.7493 0.00207481 21.0893 2.48068e-06 20.4005L0 20.3988V2.59955C0.00207233 1.91074 0.276619 1.25074 0.763678 0.763682C1.25074 0.276622 1.91073 0.00207729 2.59954 4.96138e-06ZM2.60207 1.09524C2.20287 1.09664 1.82042 1.25584 1.53813 1.53813C1.25584 1.82042 1.09664 2.20288 1.09524 2.60208V20.3979C1.09664 20.7971 1.25584 21.1796 1.53813 21.4619C1.8204 21.7441 2.20282 21.9033 2.60198 21.9048H11.6369V14.1012H9.78848C9.48604 14.1012 9.24086 13.856 9.24086 13.5536V10.131C9.24086 9.82851 9.48604 9.58333 9.78848 9.58333H11.6369V8.41983C11.6369 8.41455 11.637 8.40927 11.6371 8.404C11.6654 7.42448 11.8041 6.36248 12.4575 5.53146C13.1304 4.67565 14.2502 4.1812 15.9667 4.10801C15.9745 4.10768 15.9823 4.10751 15.9901 4.10751H18.6876C18.9901 4.10751 19.2353 4.35269 19.2353 4.65513V8.04781C19.2353 8.35025 18.9901 8.59543 18.6876 8.59543H16.407C16.3961 8.59543 16.3852 8.5951 16.3743 8.59445C16.3029 8.59018 16.2313 8.60039 16.164 8.62447C16.0966 8.64856 16.0348 8.68601 15.9823 8.73459C15.9298 8.78318 15.8877 8.84187 15.8584 8.90716C15.8297 8.97122 15.8141 9.04031 15.8123 9.11045V9.58333H18.6873C18.8486 9.58333 19.0017 9.65449 19.1058 9.7778C19.2099 9.90111 19.2542 10.064 19.2271 10.2231L18.643 13.6457C18.5981 13.9088 18.37 14.1012 18.1031 14.1012H15.8123V21.9048H20.398C20.7971 21.9033 21.1795 21.7441 21.4618 21.4619C21.7441 21.1796 21.9033 20.7972 21.9047 20.398V2.60199C21.9033 2.20283 21.7441 1.8204 21.4618 1.53813C21.1795 1.25584 20.7971 1.09664 20.3979 1.09524H2.60207Z" fill="#666B7B"/>
</svg>
