<svg width="25" height="22" viewBox="0 0 25 22" fill="none" xmlns="http://www.w3.org/2000/svg">
<path fill-rule="evenodd" clip-rule="evenodd" d="M0 2.99944C0 1.2965 1.51932 0 3.31259 0C5.10586 0 6.62518 1.2965 6.62518 2.99944C6.62518 4.70238 5.10586 5.99889 3.31259 5.99889C1.51932 5.99889 0 4.70238 0 2.99944ZM3.31259 1.04762C1.99607 1.04762 1.05595 1.97532 1.05595 2.99944C1.05595 4.02357 1.99607 4.95127 3.31259 4.95127C4.62911 4.95127 5.56923 4.02357 5.56923 2.99944C5.56923 1.97532 4.62911 1.04762 3.31259 1.04762ZM14.9433 7.0332C15.7641 6.58805 16.6779 6.38598 17.7776 6.38598C18.8961 6.38598 20.5012 6.65158 21.8379 7.69568C23.1985 8.75851 24.2 10.5645 24.2 13.4756V21.4762C24.2 21.7655 23.9636 22 23.672 22H18.9344C18.6428 22 18.4065 21.7655 18.4065 21.4762V13.7982C18.4065 12.4342 17.4519 11.1648 15.933 11.1648C15.1634 11.1648 14.642 11.4781 14.2969 11.9429C13.9376 12.4267 13.7489 13.1069 13.7489 13.8342V21.4762C13.7489 21.7655 13.5125 22 13.2209 22H8.48374C8.19215 22 7.95577 21.7655 7.95577 21.4762V7.37629C7.95577 7.087 8.19215 6.85248 8.48374 6.85248H13.1851C13.4767 6.85248 13.713 7.087 13.713 7.37629V7.94149C14.0977 7.57688 14.5014 7.27283 14.9433 7.0332ZM15.4498 7.95245C14.8088 8.30006 14.228 8.84138 13.6008 9.63633C13.462 9.81231 13.2259 9.88153 13.013 9.80868C12.8 9.73583 12.6571 9.53696 12.6571 9.31348V7.9001H9.01171V20.9524H12.693V13.8342C12.693 12.947 12.9201 12.0306 13.4468 11.3215C13.9875 10.5933 14.8222 10.1172 15.933 10.1172C18.1751 10.1172 19.4624 12.0051 19.4624 13.7982V20.9524H23.1441V13.4756C23.1441 10.8255 22.2469 9.34857 21.1847 8.51879C20.0984 7.67029 18.7564 7.4336 17.7776 7.4336C16.816 7.4336 16.0844 7.6083 15.4498 7.95245ZM0.41587 7.37629C0.41587 7.087 0.652252 6.85248 0.943843 6.85248H5.64517C5.93676 6.85248 6.17315 7.087 6.17315 7.37629V21.4762C6.17315 21.7655 5.93676 22 5.64517 22H0.943843C0.652252 22 0.41587 21.7655 0.41587 21.4762V7.37629ZM1.47182 7.9001V20.9524H5.1172V7.9001H1.47182Z" fill="#666B7B"/>
</svg>
