<svg width="16" height="16" viewBox="0 0 16 16" fill="none" xmlns="http://www.w3.org/2000/svg">
<path d="M8.00009 15.619C3.79221 15.619 0.381046 12.2079 0.381046 8C0.381046 3.79211 3.79221 0.380951 8.00009 0.380951C12.208 0.380951 15.6191 3.79211 15.6191 8C15.6191 12.2079 12.208 15.619 8.00009 15.619Z" fill="#BACAE9"/>
<path opacity="0.15" d="M6.9843 14.6032C8.42999 14.6032 9.84583 14.1918 11.0665 13.4172C12.2871 12.6426 13.2622 11.5367 13.8779 10.2287C14.4935 8.92061 14.7243 7.4644 14.5433 6.03009C14.3622 4.59578 13.7769 3.24258 12.8555 2.12851C13.6733 2.80473 14.3407 3.64429 14.8152 4.59343C15.2896 5.54256 15.5605 6.58033 15.6106 7.64024C15.6607 8.70016 15.4889 9.75886 15.1061 10.7485C14.7233 11.7382 14.1381 12.637 13.3878 13.3873C12.6375 14.1376 11.7387 14.723 10.7491 15.1058C9.75948 15.4887 8.70079 15.6606 7.64087 15.6106C6.58095 15.5606 5.54316 15.2897 4.594 14.8153C3.64483 14.3409 2.80521 13.6735 2.12894 12.8559C3.49362 13.9876 5.21144 14.6057 6.9843 14.6032Z" fill="#000028"/>
<path fill-rule="evenodd" clip-rule="evenodd" d="M8 0.761905C11.9975 0.761905 15.2381 4.00251 15.2381 8C15.2381 11.9975 11.9975 15.2381 8 15.2381C4.00251 15.2381 0.761904 11.9975 0.761904 8C0.761904 4.00251 4.00251 0.761905 8 0.761905ZM16 8C16 3.58172 12.4183 0 8 0C3.58172 0 0 3.58172 0 8C0 12.4183 3.58172 16 8 16C12.4183 16 16 12.4183 16 8ZM6.69325 4.96086C6.55739 5.12151 6.57748 5.36188 6.73813 5.49774L9.69595 7.99914L6.73797 10.5034C6.5774 10.6394 6.55743 10.8797 6.69338 11.0403C6.82932 11.2009 7.0697 11.2209 7.23028 11.0849L10.5319 8.28973C10.6174 8.21733 10.6667 8.11094 10.6667 7.99888C10.6666 7.88682 10.6173 7.78046 10.5317 7.7081L7.23012 4.91598C7.06947 4.78012 6.82911 4.80021 6.69325 4.96086Z" fill="#2E4369"/>
</svg>
