<svg width="16" height="16" viewBox="0 0 16 16" fill="none" xmlns="http://www.w3.org/2000/svg">
<path d="M7.99991 15.619C12.2078 15.619 15.619 12.2079 15.619 8C15.619 3.79211 12.2078 0.380951 7.99991 0.380951C3.79202 0.380951 0.380859 3.79211 0.380859 8C0.380859 12.2079 3.79202 15.619 7.99991 15.619Z" fill="#BACAE9"/>
<path opacity="0.15" d="M9.0157 14.6032C7.57001 14.6032 6.15417 14.1918 4.93351 13.4172C3.71285 12.6426 2.73777 11.5367 2.12213 10.2287C1.50649 8.92061 1.27571 7.4644 1.45674 6.03009C1.63776 4.59578 2.22312 3.24258 3.14446 2.12851C2.32674 2.80473 1.65928 3.64429 1.18484 4.59343C0.710411 5.54256 0.439463 6.58033 0.389358 7.64024C0.339254 8.70016 0.511099 9.75886 0.893883 10.7485C1.27667 11.7382 1.86195 12.637 2.61224 13.3873C3.36252 14.1376 4.26127 14.723 5.25089 15.1058C6.24052 15.4887 7.29921 15.6606 8.35913 15.6106C9.41905 15.5606 10.4568 15.2897 11.406 14.8153C12.3552 14.3409 13.1948 13.6735 13.8711 12.8559C12.5064 13.9876 10.7886 14.6057 9.0157 14.6032Z" fill="#000028"/>
<path fill-rule="evenodd" clip-rule="evenodd" d="M8 0.761905C4.00251 0.761905 0.761905 4.00251 0.761905 8C0.761905 11.9975 4.00251 15.2381 8 15.2381C11.9975 15.2381 15.2381 11.9975 15.2381 8C15.2381 4.00251 11.9975 0.761905 8 0.761905ZM0 8C0 3.58172 3.58172 0 8 0C12.4183 0 16 3.58172 16 8C16 12.4183 12.4183 16 8 16C3.58172 16 0 12.4183 0 8ZM9.30675 4.96086C9.44261 5.12151 9.42252 5.36188 9.26187 5.49774L6.30405 7.99914L9.26203 10.5034C9.4226 10.6394 9.44257 10.8797 9.30662 11.0403C9.17068 11.2009 8.9303 11.2209 8.76972 11.0849L5.46813 8.28973C5.38261 8.21733 5.3333 8.11094 5.33333 7.99888C5.33336 7.88682 5.38273 7.78046 5.46829 7.7081L8.76988 4.91598C8.93053 4.78012 9.17089 4.80021 9.30675 4.96086Z" fill="#2E4369"/>
</svg>
