<svg width="26" height="21" viewBox="0 0 26 21" fill="none" xmlns="http://www.w3.org/2000/svg">
<path fill-rule="evenodd" clip-rule="evenodd" d="M13.2125 0.0549684C13.3735 -0.0307426 13.567 -0.0153128 13.7136 0.0949196L25.8004 9.18458C25.9258 9.27883 26 9.43003 26 9.59101C26 9.752 25.9258 9.90319 25.8004 9.99745L13.7136 19.0871C13.567 19.1973 13.3735 19.2128 13.2125 19.1271C13.0515 19.0413 12.9502 18.8689 12.9502 18.6807V13.7294C10.7267 13.7402 8.67911 13.843 6.75156 14.6737C4.70766 15.5546 2.74617 17.2804 0.902548 20.7418C0.796105 20.9416 0.573347 21.0412 0.360878 20.984C0.148409 20.9267 0 20.7271 0 20.4986C0 18.25 0.10244 14.4939 1.84321 11.2945C3.56816 8.12408 6.85202 5.58455 12.9502 5.45701V0.501353C12.9502 0.313081 13.0515 0.14068 13.2125 0.0549684ZM13.9132 1.48188V5.95333C13.9132 6.23019 13.6976 6.45464 13.4317 6.45468C7.32099 6.45557 4.25672 8.89273 2.68106 11.7887C1.4708 14.0131 1.10882 16.5596 1.00399 18.6402C2.66883 16.0517 4.46374 14.5745 6.38329 13.7472C8.64897 12.7708 11.0362 12.7264 13.4315 12.7255C13.5592 12.7255 13.6817 12.7783 13.7721 12.8723C13.8624 12.9663 13.9132 13.0939 13.9132 13.2269V17.7001L24.6962 9.59101L13.9132 1.48188Z" fill="#2E4369"/>
</svg>
