<svg width="22" height="22" viewBox="0 0 22 22" fill="none" xmlns="http://www.w3.org/2000/svg">
<path d="M20.7777 1.91599L10.9999 0.523804L1.22217 1.91599L6.11106 2.96013V5.39645L10.9999 6.09254L15.8888 5.39645V2.96013L20.7777 1.91599Z" fill="#64738F"/>
<path d="M11 21.4762L16.5873 17.5781C13.4095 16.882 13.4444 15.8031 13.4444 15.1418V14.2021H13.3397C14.3942 13.3773 15.1436 12.2263 15.4698 10.9304C16.5174 10.9304 16.7619 9.43382 16.7619 9.12058C16.7619 8.80734 16.9365 7.51957 15.8889 7.48476V5.39648L11 6.09258L6.1111 5.39648V7.48476C5.06348 7.48476 5.06348 8.91175 5.06348 9.22499C5.06348 9.53823 5.20316 10.9652 6.25078 10.9652C6.52649 12.2363 7.25934 13.3629 8.3111 14.1324H8.20633V15.1418C8.20633 15.7683 8.38094 16.708 5.41268 17.4389L11 21.4762Z" fill="#E8D4D4"/>
<path d="M11.0001 21.4066H21.4763C21.4763 21.4066 21.4763 18.483 17.1461 17.6477L16.5874 17.5781L11.0001 21.4066ZM0.523926 21.4066H11.0001L5.41282 17.4041L4.57472 17.5781C0.523926 18.3438 0.523926 21.4066 0.523926 21.4066Z" fill="#64738F"/>
<path opacity="0.15" d="M5.41282 19.3183C6.46043 18.9703 8.55567 17.23 8.90488 15.8379C11.0001 16.882 11.6985 15.8379 12.3969 14.4457C7.50805 15.4898 7.50805 9.92107 7.50805 8.52888C7.50805 7.1367 7.85726 4.35233 7.85726 4.35233L11.0001 4.97881L15.889 4.35233V2.96014L11.0001 3.65624L6.11123 2.96014V7.48475C5.06361 7.48475 5.06361 8.91173 5.06361 9.22498C5.06361 9.53822 5.20329 10.9652 6.25091 10.9652C6.52663 12.2363 7.25948 13.3628 8.31123 14.1324H8.20647V15.1418C8.20647 15.7682 8.38107 16.708 5.44774 17.4041H5.41282L4.57472 17.5781C0.523926 18.3438 0.523926 21.4066 0.523926 21.4066H3.00329C3.21282 20.258 4.46996 19.6316 5.41282 19.3183Z" fill="#000064"/>
<path fill-rule="evenodd" clip-rule="evenodd" d="M10.9259 0.00526457C10.9751 -0.00175486 11.0249 -0.00175486 11.0741 0.00526457L20.8519 1.40209C21.1031 1.43798 21.2925 1.64885 21.3013 1.90252C21.3101 2.15618 21.1357 2.37964 20.8875 2.43282L16.4127 3.39171V7.08424C16.5721 7.14678 16.7133 7.23782 16.8337 7.35574C17.059 7.57632 17.1702 7.85037 17.2275 8.08801C17.3176 8.462 17.2971 8.89562 17.2885 9.07673C17.2869 9.11013 17.2857 9.13494 17.2857 9.14921C17.2857 9.39118 17.2115 9.92939 16.9849 10.4238C16.8013 10.8244 16.4599 11.3064 15.8859 11.468C15.5373 12.6325 14.8715 13.6732 13.9683 14.476V15.1905C13.9683 15.3767 13.969 15.501 14.0032 15.6277C14.033 15.7385 14.0946 15.8688 14.2534 16.0185C14.5981 16.3435 15.3973 16.7578 17.2462 17.1208C19.5386 17.5646 20.7518 18.6007 21.3776 19.5898C21.6854 20.0763 21.8407 20.5352 21.9191 20.8766C21.9583 21.0475 21.9785 21.1898 21.9889 21.2929C21.9941 21.3445 21.9969 21.3864 21.9984 21.4173C21.9991 21.4328 21.9995 21.4456 21.9997 21.4554L22 21.468L22 21.4727L22 21.4746L22 21.4754C22 21.4758 22 21.4762 21.4762 21.4762H22C22 21.6151 21.9448 21.7483 21.8466 21.8466C21.7484 21.9448 21.6151 22 21.4762 22H11.0004C11.0002 22 10.9999 22 10.9996 22H0.523811C0.378768 22 0.240219 21.9399 0.141167 21.8339C0.0421162 21.728 -0.00856851 21.5857 0.0011875 21.441L0.523811 21.4762C0.0011875 21.441 0.00120931 21.4406 0.00123212 21.4403L0.00128262 21.4396L0.00140172 21.4379L0.00171689 21.4337L0.00269154 21.4218C0.00350792 21.4125 0.0046766 21.4001 0.00630749 21.385C0.00956813 21.3547 0.0146839 21.3132 0.0225411 21.2619C0.0382399 21.1594 0.0649814 21.017 0.109994 20.8459C0.19982 20.5044 0.363824 20.0434 0.662163 19.5568C1.26808 18.5684 2.40415 17.516 4.47638 17.1204C6.38371 16.7563 7.15113 16.3418 7.45869 16.0311C7.68669 15.8008 7.68539 15.6207 7.68305 15.298C7.6828 15.2638 7.68254 15.2281 7.68254 15.1905V14.4451C7.31613 14.1238 6.98877 13.7588 6.70819 13.3575C6.30589 12.782 6.00693 12.1418 5.82371 11.4659C5.26421 11.3054 4.94543 10.8406 4.78093 10.4467C4.57979 9.965 4.53968 9.45403 4.53968 9.25397L4.53968 9.24575C4.53963 9.08159 4.53947 8.57684 4.69697 8.09909C4.77821 7.85267 4.91312 7.5755 5.1458 7.35574C5.27212 7.23644 5.41976 7.14138 5.5873 7.07728V3.39171L2.44445 2.71824V10.3016C2.44445 10.5909 2.20993 10.8254 1.92064 10.8254C1.63134 10.8254 1.39683 10.5909 1.39683 10.3016V2.49375L1.11247 2.43282C0.864291 2.37964 0.689948 2.15618 0.698727 1.90252C0.707507 1.64885 0.896883 1.43798 1.14815 1.40209L10.9259 0.00526457ZM4.20374 2.02383L6.21097 2.45395C6.21795 2.4553 6.22489 2.45679 6.23177 2.45841L11 3.48017L15.7682 2.45841C15.7751 2.45679 15.7821 2.4553 15.789 2.45395L17.7963 2.02383L11 1.05294L4.20374 2.02383ZM15.3651 3.6162L11.1098 4.52806C11.0374 4.54356 10.9626 4.54356 10.8902 4.52806L6.63492 3.6162V4.9584L11 5.58198L15.3651 4.9584V3.6162ZM15.3651 6.01666L11.0741 6.62966C11.0249 6.63668 10.9751 6.63668 10.9259 6.62966L6.63492 6.01666V7.50794C6.63492 7.79723 6.4004 8.03175 6.11111 8.03175C5.98232 8.03175 5.91474 8.07051 5.86512 8.11737C5.80316 8.17589 5.74163 8.2763 5.69192 8.4271C5.59024 8.73552 5.5873 9.09457 5.5873 9.25397C5.5873 9.36819 5.61704 9.73024 5.74765 10.043C5.87691 10.3525 6.03435 10.4762 6.2508 10.4762C6.49923 10.4762 6.71348 10.6507 6.76376 10.894C6.90207 11.5632 7.17531 12.1972 7.56682 12.7572C7.81185 13.1078 8.09998 13.4247 8.42372 13.7011C8.50467 13.738 8.57455 13.795 8.62706 13.8657C8.75989 13.9676 8.89797 14.063 9.04085 14.1515C9.28681 14.3038 9.36272 14.6266 9.21042 14.8726C9.10482 15.0431 8.91725 15.1319 8.73016 15.1196V15.1905C8.73016 15.2187 8.73081 15.25 8.73152 15.2839C8.73849 15.618 8.75093 16.2148 8.20322 16.7681C7.87435 17.1003 7.36523 17.3983 6.59264 17.6633L11.0027 20.833L15.3857 17.7375C14.4939 17.4549 13.9107 17.1352 13.5347 16.7807C13.2352 16.4983 13.072 16.1986 12.9916 15.9002C12.9199 15.6339 12.9203 15.384 12.9206 15.2197C12.9206 15.2096 12.9206 15.1999 12.9206 15.1905V15.1195C12.7637 15.1089 12.6132 15.028 12.5194 14.8868C12.3592 14.6459 12.4246 14.3208 12.6655 14.1606C13.8173 13.3949 14.6371 12.2222 14.9606 10.8775C15.0172 10.6421 15.2277 10.4762 15.4698 10.4762C15.6862 10.4762 15.8727 10.3362 16.0326 9.98731C16.1901 9.64362 16.2381 9.25644 16.2381 9.14921C16.2381 9.08157 16.2408 9.01262 16.2435 8.94261C16.2511 8.74604 16.2591 8.54111 16.209 8.33342C16.179 8.20876 16.1374 8.14015 16.1008 8.10428C16.0747 8.07877 16.0192 8.03638 15.8714 8.03146C15.5891 8.02204 15.3651 7.79044 15.3651 7.50794V6.01666ZM16.7148 18.0814L12.6497 20.9524H20.8567C20.7906 20.7254 20.6793 20.4456 20.4923 20.1499C20.0355 19.428 19.0839 18.5435 17.0465 18.1492L17.0452 18.1489C16.9321 18.1267 16.822 18.1042 16.7148 18.0814ZM9.37373 20.9524L5.29507 18.0208C5.0986 18.0649 4.89137 18.1077 4.67283 18.1494C2.90379 18.4872 2.01446 19.3554 1.5553 20.1043C1.36543 20.414 1.24506 20.7105 1.16926 20.9524H9.37373Z" fill="#2E4369"/>
</svg>
