<svg width="26" height="22" viewBox="0 0 26 22" fill="none" xmlns="http://www.w3.org/2000/svg">
<path fill-rule="evenodd" clip-rule="evenodd" d="M15.6168 0.443117C16.3327 0.14988 17.1 -0.00068044 17.8747 2.31169e-06L17.8783 5.5171e-06V1.82555e-05C19.3919 0.0118395 20.8447 0.57714 21.96 1.58237C22.8016 1.45258 23.6155 1.18265 24.3669 0.783527C24.3705 0.781622 24.3741 0.779758 24.3778 0.777936C24.5162 0.708442 24.673 0.683692 24.8262 0.707005C24.9794 0.730319 25.1217 0.800593 25.233 0.90832C25.3443 1.01607 25.419 1.15591 25.4462 1.30831C25.4734 1.46073 25.4516 1.6177 25.3842 1.75709L25.382 1.76163C25.1742 2.18053 24.9254 2.5771 24.6394 2.94578C24.7586 2.90674 24.8772 2.86548 24.9949 2.82202C25.1439 2.76659 25.3069 2.76006 25.46 2.8034C25.6144 2.84713 25.7507 2.93938 25.8483 3.06671C25.9458 3.19408 25.9991 3.34961 26 3.50996C26.0008 3.66954 25.9496 3.82488 25.8543 3.95291C25.282 4.72861 24.5957 5.41435 23.8187 5.98758C23.9079 8.04322 23.5789 10.0959 22.851 12.0237C22.1125 13.9795 20.9789 15.7655 19.5196 17.2725C18.0604 18.7795 16.3061 19.9759 14.3641 20.7887C12.4228 21.6012 10.3345 22.0132 8.22702 21.9997C5.52173 22.0002 2.85665 21.3505 0.460639 20.1064L0.460024 20.1061C0.310506 20.0282 0.191805 19.902 0.123927 19.7478C0.0560344 19.5936 0.0431983 19.421 0.0876318 19.2585C0.132057 19.096 0.230952 18.9537 0.367537 18.8549C0.503929 18.7563 0.669889 18.7067 0.838139 18.7139C2.67074 18.7927 4.47359 18.2869 5.98564 17.2815C5.11909 17.0581 4.32309 16.6259 3.67469 16.1019C2.85402 15.4386 2.21695 14.5846 1.99588 13.7385C1.96566 13.6241 1.96343 13.5041 1.98943 13.3887C2.01579 13.2716 2.07032 13.1628 2.14819 13.0715C2.22606 12.9801 2.32494 12.909 2.43627 12.864C2.48357 12.8448 2.53256 12.8306 2.58242 12.8215C2.03004 12.4705 1.54124 12.0239 1.14119 11.4993C0.458479 10.6042 0.0665662 9.52449 0.0176504 8.40344C0.0107671 8.27535 0.0375966 8.14773 0.095448 8.03312C0.154274 7.91658 0.243021 7.81774 0.352492 7.74643C0.461945 7.67514 0.588306 7.63383 0.718788 7.62652C0.848328 7.61927 0.97759 7.64577 1.09372 7.70346C1.16191 7.73692 1.23132 7.76759 1.30176 7.79543C0.711573 7.06454 0.30258 6.20062 0.115343 5.27311C-0.139112 4.01264 0.0300627 2.7044 0.596891 1.54821C0.600463 1.54092 0.604204 1.53372 0.608112 1.52661C0.66699 1.41944 0.75161 1.32859 0.854251 1.26199C0.956881 1.19539 1.0744 1.15506 1.19634 1.14444C1.31827 1.13383 1.44102 1.15323 1.55368 1.20101C1.66547 1.24842 1.76401 1.32237 1.84052 1.41654C4.26653 4.37456 8.35544 6.16782 12.0038 6.45323C11.9837 6.25014 11.974 6.04601 11.9749 5.84164C11.9749 5.84116 11.9749 5.84068 11.9749 5.84021L12.502 5.84264L11.9749 5.8431C11.9749 5.84261 11.9749 5.84213 11.9749 5.84164C11.9744 5.07433 12.1267 4.3145 12.4229 3.60557C12.7193 2.8962 13.154 2.25179 13.7021 1.70917C14.2502 1.16655 14.9008 0.736357 15.6168 0.443117ZM23.636 3.21791C23.6369 3.21772 23.6377 3.21753 23.6386 3.21735L23.636 3.21791ZM17.8719 1.04762C17.2359 1.0473 16.606 1.17103 16.0184 1.41172C15.4302 1.65263 14.8959 2.00595 14.446 2.45138C13.9961 2.8968 13.6395 3.42557 13.3963 4.00737C13.1532 4.58918 13.0284 5.21266 13.029 5.84217L13.029 5.84506C13.0273 6.20009 13.0643 6.55427 13.1393 6.90147C13.1732 7.05887 13.1325 7.22306 13.0288 7.34672C12.9251 7.47039 12.77 7.53979 12.6081 7.53494C8.70667 7.41797 4.17361 5.62537 1.35033 2.4604C1.04382 3.29159 0.972422 4.19331 1.1488 5.06703C1.35732 6.09996 1.9008 7.03754 2.69698 7.73716C2.81327 7.83461 2.89696 7.96538 2.93619 8.11207C2.97666 8.2634 2.96766 8.42354 2.91052 8.56941C2.85339 8.71525 2.75121 8.83904 2.61903 8.92329C2.48803 9.00679 2.33411 9.04731 2.17897 9.03942C1.81729 9.02327 1.46052 8.95723 1.11878 8.84389C1.2321 9.57575 1.52725 10.2713 1.98119 10.8665C2.53526 11.593 3.29975 12.1356 4.17327 12.4221C4.17762 12.4235 4.18196 12.425 4.18628 12.4265C4.34113 12.4818 4.47346 12.5866 4.56217 12.7248C4.6509 12.8632 4.69083 13.027 4.67541 13.1905C4.65999 13.3541 4.59014 13.5076 4.47726 13.6271C4.36442 13.7465 4.215 13.8251 4.05263 13.851C4.04454 13.8523 4.03642 13.8534 4.02828 13.8544C3.74398 13.8863 3.45793 13.898 3.17236 13.8894C3.39714 14.3525 3.79837 14.8516 4.33968 15.289C5.04027 15.8552 5.92334 16.275 6.83556 16.3753L6.8455 16.3765C6.98667 16.3947 7.11979 16.4528 7.22892 16.544C7.33808 16.6353 7.41866 16.756 7.46076 16.8918C7.50287 17.0276 7.50461 17.1726 7.46579 17.3094C7.42697 17.4462 7.3493 17.5687 7.24235 17.6626C7.23579 17.6683 7.22908 17.6739 7.22224 17.6794C5.75204 18.8452 3.97694 19.5517 2.1212 19.7267C4.04938 20.5342 6.12591 20.9527 8.22843 20.9521H8.23205V20.9521C10.1975 20.9649 12.1448 20.5808 13.9551 19.8232C15.7653 19.0655 17.4003 17.9504 18.7602 16.546C20.12 15.1417 21.1762 13.4776 21.8642 11.6556C22.5521 9.83357 22.8575 7.89184 22.7617 5.94909C22.7613 5.94055 22.7611 5.932 22.7611 5.92344V5.72185C22.7611 5.55068 22.8452 5.39032 22.9864 5.29234C23.4789 4.95066 23.9331 4.55958 24.3422 4.12588C24.1835 4.16772 24.0238 4.20607 23.8633 4.24088C23.7052 4.27542 23.5399 4.25782 23.3926 4.19061C23.2445 4.12303 23.1226 4.0089 23.046 3.86544C22.9694 3.72193 22.9425 3.55726 22.9696 3.39691C22.9965 3.23794 23.075 3.09238 23.1927 2.98212C23.4668 2.72208 23.7149 2.4376 23.9342 2.1327C23.2641 2.39253 22.5625 2.56854 21.8455 2.65565C21.6856 2.67507 21.5256 2.62075 21.411 2.50818C20.4695 1.58286 19.1993 1.05846 17.8719 1.04762ZM25.0075 3.32895L25.0052 3.33219C25.006 3.33111 25.0067 3.33003 25.0075 3.32895ZM0.793175 19.7606C0.792993 19.7606 0.792811 19.7606 0.792629 19.7606L0.792084 19.7606C0.792448 19.7606 0.792812 19.7606 0.793175 19.7606ZM1.07004 8.34482C1.07017 8.34684 1.07028 8.34886 1.07036 8.35087L1.07004 8.34482Z" fill="#666B7B"/>
</svg>
