<svg width="30" height="30" viewBox="0 0 30 30" fill="none" xmlns="http://www.w3.org/2000/svg">
<path d="M15 29.2857C22.8898 29.2857 29.2857 22.8897 29.2857 14.9999C29.2857 7.11017 22.8898 0.714233 15 0.714233C7.11023 0.714233 0.714294 7.11017 0.714294 14.9999C0.714294 22.8897 7.11023 29.2857 15 29.2857Z" fill="#B3C5E5"/>
<path opacity="0.25" d="M15.0002 0.714235C12.8971 0.713321 10.82 1.1783 8.91804 2.07576C7.01609 2.97321 5.33657 4.28086 4.00018 5.90471C6.74329 3.67718 10.2146 2.54535 13.7435 2.72788C17.2724 2.91041 20.6085 4.39435 23.1071 6.893C25.6058 9.39165 27.0897 12.7277 27.2723 16.2566C27.4548 19.7855 26.3229 23.2568 24.0954 26C26.3573 24.1257 27.9865 21.5996 28.7609 18.766C29.5353 15.9323 29.4173 12.9289 28.4231 10.1647C27.4288 7.40049 25.6066 5.01003 23.2046 3.31891C20.8026 1.6278 17.9377 0.718277 15.0002 0.714235Z" fill="white"/>
<path d="M11.1905 8.33337L22.6191 15L11.1905 21.6667V8.33337Z" fill="white"/>
<path opacity="0.16" d="M11.1905 8.33337V10.2381L21 15.9524L22.6191 15L11.1905 8.33337Z" fill="#000064"/>
<path fill-rule="evenodd" clip-rule="evenodd" d="M15 1.42857C7.50471 1.42857 1.42857 7.50471 1.42857 15C1.42857 22.4953 7.50471 28.5714 15 28.5714C22.4953 28.5714 28.5714 22.4953 28.5714 15C28.5714 7.50471 22.4953 1.42857 15 1.42857ZM0 15C0 6.71573 6.71573 0 15 0C23.2843 0 30 6.71573 30 15C30 23.2843 23.2843 30 15 30C6.71573 30 0 23.2843 0 15ZM10.8347 7.71395C11.0565 7.58656 11.3295 7.58748 11.5504 7.71635L22.979 14.383C23.1984 14.511 23.3333 14.746 23.3333 15C23.3333 15.254 23.1984 15.489 22.979 15.617L11.5504 22.2837C11.3295 22.4125 11.0565 22.4134 10.8347 22.2861C10.6129 22.1587 10.4762 21.9224 10.4762 21.6667V8.33333C10.4762 8.07757 10.6129 7.84133 10.8347 7.71395ZM11.9048 9.57693V20.4231L21.2015 15L11.9048 9.57693Z" fill="#2E4369"/>
</svg>
