<svg width="78" height="75" viewBox="0 0 78 75" fill="none" xmlns="http://www.w3.org/2000/svg">
<g filter="url(#filter0_d)">
<path d="M74 35C74 54.3302 58.3302 70 39 70C31.3443 70 24.2627 67.5428 18.5013 63.3713C17.7344 62.8169 16.9899 62.2316 16.2716 61.6158C8.76006 55.197 4 45.6544 4 35C4 15.6698 19.6698 0 39 0C39.7359 0 40.4655 0.0229645 41.1912 0.0683594C58.4755 1.13434 72.3642 14.7469 73.866 31.9115C73.9541 32.9284 74 33.9586 74 35Z" fill="#304E87"/>
<path d="M73.8916 30.6544C73.8916 31.0757 73.8831 31.4944 73.866 31.9115C73.2059 48.2585 59.7445 61.3087 43.2357 61.3087C38.5872 61.3087 34.1802 60.2716 30.233 58.42L18.5013 63.3713C17.7344 62.8169 16.9899 62.2316 16.2716 61.6158L18.943 49.3485C14.9557 44.174 12.5813 37.6927 12.5813 30.6544C12.5813 14.4115 25.2144 1.11832 41.1913 0.0683594C41.8674 0.0229645 42.5489 0 43.2357 0C60.1658 0 73.8916 13.7242 73.8916 30.6544V30.6544Z" fill="#3FC37C"/>
<path d="M30.3007 8.97109L27.5765 8.82262C26.7204 8.77562 25.8814 9.06188 25.2341 9.6237C23.9134 10.7709 21.8012 12.9883 21.1523 15.8781C20.1851 20.1863 21.68 25.4628 25.5492 30.7387C29.4185 36.0147 36.6288 44.4565 49.3794 48.062C53.4879 49.2235 56.72 48.4406 59.2141 46.8454C61.189 45.5818 62.5503 43.554 63.0411 41.2613L63.4764 39.2297C63.6142 38.584 63.2863 37.9288 62.6865 37.6521L53.4788 33.408C52.8807 33.1324 52.172 33.3065 51.7699 33.8277L48.1548 38.5136C47.8819 38.8676 47.4146 39.0081 46.9922 38.8596C44.5168 37.9896 36.2245 34.5167 31.6743 25.7522C31.4773 25.372 31.5264 24.9106 31.8062 24.5864L35.2611 20.59C35.6135 20.1815 35.7033 19.6079 35.4912 19.1118L31.5221 9.82558C31.3106 9.33158 30.8375 9.00046 30.3007 8.97109V8.97109Z" fill="#17A388"/>
<path d="M33.1579 8.97109L30.4336 8.82262C29.5781 8.77562 28.7385 9.06188 28.0913 9.6237C26.7705 10.7709 24.6583 12.9883 24.01 15.8781C23.0428 20.1863 24.5376 25.4628 28.4069 30.7387C32.2756 36.0147 39.4864 44.4565 52.2365 48.062C56.3456 49.2235 59.5777 48.4406 62.0717 46.8454C64.0467 45.5818 65.408 43.554 65.8988 41.2613L66.3335 39.2297C66.4718 38.584 66.1439 37.9288 65.5442 37.6521L56.336 33.408C55.7384 33.1324 55.0297 33.3065 54.6275 33.8277L51.0125 38.5136C50.7396 38.8676 50.2717 39.0081 49.8498 38.8596C47.3745 37.9896 39.0822 34.5167 34.532 25.7522C34.3344 25.372 34.3835 24.9106 34.6634 24.5864L38.1182 20.59C38.4712 20.1815 38.5604 19.6079 38.3484 19.1118L34.3793 9.82558C34.1678 9.33158 33.6946 9.00046 33.1579 8.97109V8.97109Z" fill="#FCF8F2"/>
</g>
<defs>
<filter id="filter0_d" x="0" y="0" width="78" height="78" filterUnits="userSpaceOnUse" color-interpolation-filters="sRGB">
<feFlood flood-opacity="0" result="BackgroundImageFix"/>
<feColorMatrix in="SourceAlpha" type="matrix" values="0 0 0 0 0 0 0 0 0 0 0 0 0 0 0 0 0 0 127 0"/>
<feOffset dy="4"/>
<feGaussianBlur stdDeviation="2"/>
<feColorMatrix type="matrix" values="0 0 0 0 0 0 0 0 0 0 0 0 0 0 0 0 0 0 0.25 0"/>
<feBlend mode="normal" in2="BackgroundImageFix" result="effect1_dropShadow"/>
<feBlend mode="normal" in="SourceGraphic" in2="effect1_dropShadow" result="shape"/>
</filter>
</defs>
</svg>
